<?xml version="1.0" encoding="utf-8" standalone="no"?>
<!DOCTYPE svg PUBLIC "-//W3C//DTD SVG 1.1//EN"
  "http://www.w3.org/Graphics/SVG/1.1/DTD/svg11.dtd">
<svg xmlns:xlink="http://www.w3.org/1999/xlink" width="432pt" height="288pt" viewBox="0 0 432 288" xmlns="http://www.w3.org/2000/svg" version="1.1">
 <metadata>
  <rdf:RDF xmlns:dc="http://purl.org/dc/elements/1.1/" xmlns:cc="http://creativecommons.org/ns#" xmlns:rdf="http://www.w3.org/1999/02/22-rdf-syntax-ns#">
   <cc:Work>
    <dc:type rdf:resource="http://purl.org/dc/dcmitype/StillImage"/>
    <dc:date>2024-01-17T23:13:35.444775</dc:date>
    <dc:format>image/svg+xml</dc:format>
    <dc:creator>
     <cc:Agent>
      <dc:title>Matplotlib v3.5.2, https://matplotlib.org/</dc:title>
     </cc:Agent>
    </dc:creator>
   </cc:Work>
  </rdf:RDF>
 </metadata>
 <defs>
  <style type="text/css">*{stroke-linejoin: round; stroke-linecap: butt}</style>
 </defs>
 <g id="figure_1">
  <g id="patch_1">
   <path d="M 0 288 
L 432 288 
L 432 0 
L 0 0 
L 0 288 
z
" style="fill: none"/>
  </g>
  <g id="axes_1">
   <g id="patch_2">
    <path d="M 54 252 
L 388.8 252 
L 388.8 34.56 
L 54 34.56 
z
" style="fill: #ffffff"/>
   </g>
   <g id="PathCollection_1">
    <defs>
     <path id="m636ddb7824" d="M 0 3 
C 0.795609 3 1.55874 2.683901 2.12132 2.12132 
C 2.683901 1.55874 3 0.795609 3 0 
C 3 -0.795609 2.683901 -1.55874 2.12132 -2.12132 
C 1.55874 -2.683901 0.795609 -3 0 -3 
C -0.795609 -3 -1.55874 -2.683901 -2.12132 -2.12132 
C -2.683901 -1.55874 -3 -0.795609 -3 0 
C -3 0.795609 -2.683901 1.55874 -2.12132 2.12132 
C -1.55874 2.683901 -0.795609 3 0 3 
z
" style="stroke: #1f77b4"/>
    </defs>
    <g clip-path="url(#p6cefda2ed4)">
     <use xlink:href="#m636ddb7824" x="69.218182" y="200.481444" style="fill: #1f77b4; stroke: #1f77b4"/>
     <use xlink:href="#m636ddb7824" x="88.240909" y="200.416172" style="fill: #1f77b4; stroke: #1f77b4"/>
     <use xlink:href="#m636ddb7824" x="107.263636" y="196.819986" style="fill: #1f77b4; stroke: #1f77b4"/>
     <use xlink:href="#m636ddb7824" x="126.286364" y="188.629062" style="fill: #1f77b4; stroke: #1f77b4"/>
     <use xlink:href="#m636ddb7824" x="145.309091" y="182.851662" style="fill: #1f77b4; stroke: #1f77b4"/>
     <use xlink:href="#m636ddb7824" x="164.331818" y="173.770816" style="fill: #1f77b4; stroke: #1f77b4"/>
     <use xlink:href="#m636ddb7824" x="183.354545" y="172.426065" style="fill: #1f77b4; stroke: #1f77b4"/>
     <use xlink:href="#m636ddb7824" x="202.377273" y="163.914042" style="fill: #1f77b4; stroke: #1f77b4"/>
     <use xlink:href="#m636ddb7824" x="221.4" y="142.859563" style="fill: #1f77b4; stroke: #1f77b4"/>
     <use xlink:href="#m636ddb7824" x="240.422727" y="149.343752" style="fill: #1f77b4; stroke: #1f77b4"/>
     <use xlink:href="#m636ddb7824" x="259.445455" y="147.636957" style="fill: #1f77b4; stroke: #1f77b4"/>
     <use xlink:href="#m636ddb7824" x="278.468182" y="136.619218" style="fill: #1f77b4; stroke: #1f77b4"/>
     <use xlink:href="#m636ddb7824" x="297.490909" y="141.102946" style="fill: #1f77b4; stroke: #1f77b4"/>
     <use xlink:href="#m636ddb7824" x="316.513636" y="94.187962" style="fill: #1f77b4; stroke: #1f77b4"/>
     <use xlink:href="#m636ddb7824" x="335.536364" y="77.768208" style="fill: #1f77b4; stroke: #1f77b4"/>
     <use xlink:href="#m636ddb7824" x="354.559091" y="54.031504" style="fill: #1f77b4; stroke: #1f77b4"/>
     <use xlink:href="#m636ddb7824" x="373.581818" y="45.697782" style="fill: #1f77b4; stroke: #1f77b4"/>
    </g>
   </g>
   <g id="PathCollection_2">
    <defs>
     <path id="m54886dd10b" d="M 0 3 
C 0.795609 3 1.55874 2.683901 2.12132 2.12132 
C 2.683901 1.55874 3 0.795609 3 0 
C 3 -0.795609 2.683901 -1.55874 2.12132 -2.12132 
C 1.55874 -2.683901 0.795609 -3 0 -3 
C -0.795609 -3 -1.55874 -2.683901 -2.12132 -2.12132 
C -2.683901 -1.55874 -3 -0.795609 -3 0 
C -3 0.795609 -2.683901 1.55874 -2.12132 2.12132 
C -1.55874 2.683901 -0.795609 3 0 3 
z
" style="stroke: #ff7f0e"/>
    </defs>
    <g clip-path="url(#p6cefda2ed4)">
     <use xlink:href="#m54886dd10b" x="69.218182" y="237.757605" style="fill: #ff7f0e; stroke: #ff7f0e"/>
     <use xlink:href="#m54886dd10b" x="88.240909" y="236.736283" style="fill: #ff7f0e; stroke: #ff7f0e"/>
     <use xlink:href="#m54886dd10b" x="107.263636" y="234.314505" style="fill: #ff7f0e; stroke: #ff7f0e"/>
     <use xlink:href="#m54886dd10b" x="126.286364" y="231.071193" style="fill: #ff7f0e; stroke: #ff7f0e"/>
     <use xlink:href="#m54886dd10b" x="145.309091" y="226.937484" style="fill: #ff7f0e; stroke: #ff7f0e"/>
     <use xlink:href="#m54886dd10b" x="164.331818" y="221.509959" style="fill: #ff7f0e; stroke: #ff7f0e"/>
     <use xlink:href="#m54886dd10b" x="183.354545" y="214.47768" style="fill: #ff7f0e; stroke: #ff7f0e"/>
     <use xlink:href="#m54886dd10b" x="202.377273" y="203.917145" style="fill: #ff7f0e; stroke: #ff7f0e"/>
     <use xlink:href="#m54886dd10b" x="221.4" y="191.839015" style="fill: #ff7f0e; stroke: #ff7f0e"/>
     <use xlink:href="#m54886dd10b" x="240.422727" y="182.114453" style="fill: #ff7f0e; stroke: #ff7f0e"/>
     <use xlink:href="#m54886dd10b" x="259.445455" y="173.31347" style="fill: #ff7f0e; stroke: #ff7f0e"/>
     <use xlink:href="#m54886dd10b" x="278.468182" y="167.045958" style="fill: #ff7f0e; stroke: #ff7f0e"/>
     <use xlink:href="#m54886dd10b" x="297.490909" y="156.549773" style="fill: #ff7f0e; stroke: #ff7f0e"/>
     <use xlink:href="#m54886dd10b" x="316.513636" y="149.266605" style="fill: #ff7f0e; stroke: #ff7f0e"/>
     <use xlink:href="#m54886dd10b" x="335.536364" y="140.687316" style="fill: #ff7f0e; stroke: #ff7f0e"/>
     <use xlink:href="#m54886dd10b" x="354.559091" y="133.412304" style="fill: #ff7f0e; stroke: #ff7f0e"/>
     <use xlink:href="#m54886dd10b" x="373.581818" y="123.634032" style="fill: #ff7f0e; stroke: #ff7f0e"/>
    </g>
   </g>
   <g id="matplotlib.axis_1">
    <g id="xtick_1">
     <g id="line2d_1">
      <defs>
       <path id="m5a597d9b84" d="M 0 0 
L 0 3.5 
" style="stroke: #000000; stroke-width: 0.8"/>
      </defs>
      <g>
       <use xlink:href="#m5a597d9b84" x="59.706818" y="252" style="stroke: #000000; stroke-width: 0.8"/>
      </g>
     </g>
     <g id="text_1">
      <!-- 0 -->
      <g transform="translate(56.525568 266.598437)scale(0.1 -0.1)">
       <defs>
        <path id="DejaVuSans-30" d="M 2034 4250 
Q 1547 4250 1301 3770 
Q 1056 3291 1056 2328 
Q 1056 1369 1301 889 
Q 1547 409 2034 409 
Q 2525 409 2770 889 
Q 3016 1369 3016 2328 
Q 3016 3291 2770 3770 
Q 2525 4250 2034 4250 
z
M 2034 4750 
Q 2819 4750 3233 4129 
Q 3647 3509 3647 2328 
Q 3647 1150 3233 529 
Q 2819 -91 2034 -91 
Q 1250 -91 836 529 
Q 422 1150 422 2328 
Q 422 3509 836 4129 
Q 1250 4750 2034 4750 
z
" transform="scale(0.015625)"/>
       </defs>
       <use xlink:href="#DejaVuSans-30"/>
      </g>
     </g>
    </g>
    <g id="xtick_2">
     <g id="line2d_2">
      <g>
       <use xlink:href="#m5a597d9b84" x="107.263636" y="252" style="stroke: #000000; stroke-width: 0.8"/>
      </g>
     </g>
     <g id="text_2">
      <!-- 5 -->
      <g transform="translate(104.082386 266.598437)scale(0.1 -0.1)">
       <defs>
        <path id="DejaVuSans-35" d="M 691 4666 
L 3169 4666 
L 3169 4134 
L 1269 4134 
L 1269 2991 
Q 1406 3038 1543 3061 
Q 1681 3084 1819 3084 
Q 2600 3084 3056 2656 
Q 3513 2228 3513 1497 
Q 3513 744 3044 326 
Q 2575 -91 1722 -91 
Q 1428 -91 1123 -41 
Q 819 9 494 109 
L 494 744 
Q 775 591 1075 516 
Q 1375 441 1709 441 
Q 2250 441 2565 725 
Q 2881 1009 2881 1497 
Q 2881 1984 2565 2268 
Q 2250 2553 1709 2553 
Q 1456 2553 1204 2497 
Q 953 2441 691 2322 
L 691 4666 
z
" transform="scale(0.015625)"/>
       </defs>
       <use xlink:href="#DejaVuSans-35"/>
      </g>
     </g>
    </g>
    <g id="xtick_3">
     <g id="line2d_3">
      <g>
       <use xlink:href="#m5a597d9b84" x="154.820455" y="252" style="stroke: #000000; stroke-width: 0.8"/>
      </g>
     </g>
     <g id="text_3">
      <!-- 10 -->
      <g transform="translate(148.457955 266.598437)scale(0.1 -0.1)">
       <defs>
        <path id="DejaVuSans-31" d="M 794 531 
L 1825 531 
L 1825 4091 
L 703 3866 
L 703 4441 
L 1819 4666 
L 2450 4666 
L 2450 531 
L 3481 531 
L 3481 0 
L 794 0 
L 794 531 
z
" transform="scale(0.015625)"/>
       </defs>
       <use xlink:href="#DejaVuSans-31"/>
       <use xlink:href="#DejaVuSans-30" x="63.623047"/>
      </g>
     </g>
    </g>
    <g id="xtick_4">
     <g id="line2d_4">
      <g>
       <use xlink:href="#m5a597d9b84" x="202.377273" y="252" style="stroke: #000000; stroke-width: 0.8"/>
      </g>
     </g>
     <g id="text_4">
      <!-- 15 -->
      <g transform="translate(196.014773 266.598437)scale(0.1 -0.1)">
       <use xlink:href="#DejaVuSans-31"/>
       <use xlink:href="#DejaVuSans-35" x="63.623047"/>
      </g>
     </g>
    </g>
    <g id="xtick_5">
     <g id="line2d_5">
      <g>
       <use xlink:href="#m5a597d9b84" x="249.934091" y="252" style="stroke: #000000; stroke-width: 0.8"/>
      </g>
     </g>
     <g id="text_5">
      <!-- 20 -->
      <g transform="translate(243.571591 266.598437)scale(0.1 -0.1)">
       <defs>
        <path id="DejaVuSans-32" d="M 1228 531 
L 3431 531 
L 3431 0 
L 469 0 
L 469 531 
Q 828 903 1448 1529 
Q 2069 2156 2228 2338 
Q 2531 2678 2651 2914 
Q 2772 3150 2772 3378 
Q 2772 3750 2511 3984 
Q 2250 4219 1831 4219 
Q 1534 4219 1204 4116 
Q 875 4013 500 3803 
L 500 4441 
Q 881 4594 1212 4672 
Q 1544 4750 1819 4750 
Q 2544 4750 2975 4387 
Q 3406 4025 3406 3419 
Q 3406 3131 3298 2873 
Q 3191 2616 2906 2266 
Q 2828 2175 2409 1742 
Q 1991 1309 1228 531 
z
" transform="scale(0.015625)"/>
       </defs>
       <use xlink:href="#DejaVuSans-32"/>
       <use xlink:href="#DejaVuSans-30" x="63.623047"/>
      </g>
     </g>
    </g>
    <g id="xtick_6">
     <g id="line2d_6">
      <g>
       <use xlink:href="#m5a597d9b84" x="297.490909" y="252" style="stroke: #000000; stroke-width: 0.8"/>
      </g>
     </g>
     <g id="text_6">
      <!-- 25 -->
      <g transform="translate(291.128409 266.598437)scale(0.1 -0.1)">
       <use xlink:href="#DejaVuSans-32"/>
       <use xlink:href="#DejaVuSans-35" x="63.623047"/>
      </g>
     </g>
    </g>
    <g id="xtick_7">
     <g id="line2d_7">
      <g>
       <use xlink:href="#m5a597d9b84" x="345.047727" y="252" style="stroke: #000000; stroke-width: 0.8"/>
      </g>
     </g>
     <g id="text_7">
      <!-- 30 -->
      <g transform="translate(338.685227 266.598437)scale(0.1 -0.1)">
       <defs>
        <path id="DejaVuSans-33" d="M 2597 2516 
Q 3050 2419 3304 2112 
Q 3559 1806 3559 1356 
Q 3559 666 3084 287 
Q 2609 -91 1734 -91 
Q 1441 -91 1130 -33 
Q 819 25 488 141 
L 488 750 
Q 750 597 1062 519 
Q 1375 441 1716 441 
Q 2309 441 2620 675 
Q 2931 909 2931 1356 
Q 2931 1769 2642 2001 
Q 2353 2234 1838 2234 
L 1294 2234 
L 1294 2753 
L 1863 2753 
Q 2328 2753 2575 2939 
Q 2822 3125 2822 3475 
Q 2822 3834 2567 4026 
Q 2313 4219 1838 4219 
Q 1578 4219 1281 4162 
Q 984 4106 628 3988 
L 628 4550 
Q 988 4650 1302 4700 
Q 1616 4750 1894 4750 
Q 2613 4750 3031 4423 
Q 3450 4097 3450 3541 
Q 3450 3153 3228 2886 
Q 3006 2619 2597 2516 
z
" transform="scale(0.015625)"/>
       </defs>
       <use xlink:href="#DejaVuSans-33"/>
       <use xlink:href="#DejaVuSans-30" x="63.623047"/>
      </g>
     </g>
    </g>
    <g id="text_8">
     <!-- Uw (m/s) -->
     <g transform="translate(199.001563 280.276563)scale(0.1 -0.1)">
      <defs>
       <path id="DejaVuSans-55" d="M 556 4666 
L 1191 4666 
L 1191 1831 
Q 1191 1081 1462 751 
Q 1734 422 2344 422 
Q 2950 422 3222 751 
Q 3494 1081 3494 1831 
L 3494 4666 
L 4128 4666 
L 4128 1753 
Q 4128 841 3676 375 
Q 3225 -91 2344 -91 
Q 1459 -91 1007 375 
Q 556 841 556 1753 
L 556 4666 
z
" transform="scale(0.015625)"/>
       <path id="DejaVuSans-77" d="M 269 3500 
L 844 3500 
L 1563 769 
L 2278 3500 
L 2956 3500 
L 3675 769 
L 4391 3500 
L 4966 3500 
L 4050 0 
L 3372 0 
L 2619 2869 
L 1863 0 
L 1184 0 
L 269 3500 
z
" transform="scale(0.015625)"/>
       <path id="DejaVuSans-20" transform="scale(0.015625)"/>
       <path id="DejaVuSans-28" d="M 1984 4856 
Q 1566 4138 1362 3434 
Q 1159 2731 1159 2009 
Q 1159 1288 1364 580 
Q 1569 -128 1984 -844 
L 1484 -844 
Q 1016 -109 783 600 
Q 550 1309 550 2009 
Q 550 2706 781 3412 
Q 1013 4119 1484 4856 
L 1984 4856 
z
" transform="scale(0.015625)"/>
       <path id="DejaVuSans-6d" d="M 3328 2828 
Q 3544 3216 3844 3400 
Q 4144 3584 4550 3584 
Q 5097 3584 5394 3201 
Q 5691 2819 5691 2113 
L 5691 0 
L 5113 0 
L 5113 2094 
Q 5113 2597 4934 2840 
Q 4756 3084 4391 3084 
Q 3944 3084 3684 2787 
Q 3425 2491 3425 1978 
L 3425 0 
L 2847 0 
L 2847 2094 
Q 2847 2600 2669 2842 
Q 2491 3084 2119 3084 
Q 1678 3084 1418 2786 
Q 1159 2488 1159 1978 
L 1159 0 
L 581 0 
L 581 3500 
L 1159 3500 
L 1159 2956 
Q 1356 3278 1631 3431 
Q 1906 3584 2284 3584 
Q 2666 3584 2933 3390 
Q 3200 3197 3328 2828 
z
" transform="scale(0.015625)"/>
       <path id="DejaVuSans-2f" d="M 1625 4666 
L 2156 4666 
L 531 -594 
L 0 -594 
L 1625 4666 
z
" transform="scale(0.015625)"/>
       <path id="DejaVuSans-73" d="M 2834 3397 
L 2834 2853 
Q 2591 2978 2328 3040 
Q 2066 3103 1784 3103 
Q 1356 3103 1142 2972 
Q 928 2841 928 2578 
Q 928 2378 1081 2264 
Q 1234 2150 1697 2047 
L 1894 2003 
Q 2506 1872 2764 1633 
Q 3022 1394 3022 966 
Q 3022 478 2636 193 
Q 2250 -91 1575 -91 
Q 1294 -91 989 -36 
Q 684 19 347 128 
L 347 722 
Q 666 556 975 473 
Q 1284 391 1588 391 
Q 1994 391 2212 530 
Q 2431 669 2431 922 
Q 2431 1156 2273 1281 
Q 2116 1406 1581 1522 
L 1381 1569 
Q 847 1681 609 1914 
Q 372 2147 372 2553 
Q 372 3047 722 3315 
Q 1072 3584 1716 3584 
Q 2034 3584 2315 3537 
Q 2597 3491 2834 3397 
z
" transform="scale(0.015625)"/>
       <path id="DejaVuSans-29" d="M 513 4856 
L 1013 4856 
Q 1481 4119 1714 3412 
Q 1947 2706 1947 2009 
Q 1947 1309 1714 600 
Q 1481 -109 1013 -844 
L 513 -844 
Q 928 -128 1133 580 
Q 1338 1288 1338 2009 
Q 1338 2731 1133 3434 
Q 928 4138 513 4856 
z
" transform="scale(0.015625)"/>
      </defs>
      <use xlink:href="#DejaVuSans-55"/>
      <use xlink:href="#DejaVuSans-77" x="73.193359"/>
      <use xlink:href="#DejaVuSans-20" x="154.980469"/>
      <use xlink:href="#DejaVuSans-28" x="186.767578"/>
      <use xlink:href="#DejaVuSans-6d" x="225.78125"/>
      <use xlink:href="#DejaVuSans-2f" x="323.193359"/>
      <use xlink:href="#DejaVuSans-73" x="356.884766"/>
      <use xlink:href="#DejaVuSans-29" x="408.984375"/>
     </g>
    </g>
   </g>
   <g id="matplotlib.axis_2">
    <g id="ytick_1">
     <g id="line2d_8">
      <defs>
       <path id="mbccabd431f" d="M 0 0 
L -3.5 0 
" style="stroke: #000000; stroke-width: 0.8"/>
      </defs>
      <g>
       <use xlink:href="#mbccabd431f" x="54" y="245.156509" style="stroke: #000000; stroke-width: 0.8"/>
      </g>
     </g>
     <g id="text_9">
      <!-- 0 -->
      <g transform="translate(40.6375 248.955727)scale(0.1 -0.1)">
       <use xlink:href="#DejaVuSans-30"/>
      </g>
     </g>
    </g>
    <g id="ytick_2">
     <g id="line2d_9">
      <g>
       <use xlink:href="#mbccabd431f" x="54" y="208.554557" style="stroke: #000000; stroke-width: 0.8"/>
      </g>
     </g>
     <g id="text_10">
      <!-- 2 -->
      <g transform="translate(40.6375 212.353776)scale(0.1 -0.1)">
       <use xlink:href="#DejaVuSans-32"/>
      </g>
     </g>
    </g>
    <g id="ytick_3">
     <g id="line2d_10">
      <g>
       <use xlink:href="#mbccabd431f" x="54" y="171.952605" style="stroke: #000000; stroke-width: 0.8"/>
      </g>
     </g>
     <g id="text_11">
      <!-- 4 -->
      <g transform="translate(40.6375 175.751824)scale(0.1 -0.1)">
       <defs>
        <path id="DejaVuSans-34" d="M 2419 4116 
L 825 1625 
L 2419 1625 
L 2419 4116 
z
M 2253 4666 
L 3047 4666 
L 3047 1625 
L 3713 1625 
L 3713 1100 
L 3047 1100 
L 3047 0 
L 2419 0 
L 2419 1100 
L 313 1100 
L 313 1709 
L 2253 4666 
z
" transform="scale(0.015625)"/>
       </defs>
       <use xlink:href="#DejaVuSans-34"/>
      </g>
     </g>
    </g>
    <g id="ytick_4">
     <g id="line2d_11">
      <g>
       <use xlink:href="#mbccabd431f" x="54" y="135.350653" style="stroke: #000000; stroke-width: 0.8"/>
      </g>
     </g>
     <g id="text_12">
      <!-- 6 -->
      <g transform="translate(40.6375 139.149872)scale(0.1 -0.1)">
       <defs>
        <path id="DejaVuSans-36" d="M 2113 2584 
Q 1688 2584 1439 2293 
Q 1191 2003 1191 1497 
Q 1191 994 1439 701 
Q 1688 409 2113 409 
Q 2538 409 2786 701 
Q 3034 994 3034 1497 
Q 3034 2003 2786 2293 
Q 2538 2584 2113 2584 
z
M 3366 4563 
L 3366 3988 
Q 3128 4100 2886 4159 
Q 2644 4219 2406 4219 
Q 1781 4219 1451 3797 
Q 1122 3375 1075 2522 
Q 1259 2794 1537 2939 
Q 1816 3084 2150 3084 
Q 2853 3084 3261 2657 
Q 3669 2231 3669 1497 
Q 3669 778 3244 343 
Q 2819 -91 2113 -91 
Q 1303 -91 875 529 
Q 447 1150 447 2328 
Q 447 3434 972 4092 
Q 1497 4750 2381 4750 
Q 2619 4750 2861 4703 
Q 3103 4656 3366 4563 
z
" transform="scale(0.015625)"/>
       </defs>
       <use xlink:href="#DejaVuSans-36"/>
      </g>
     </g>
    </g>
    <g id="ytick_5">
     <g id="line2d_12">
      <g>
       <use xlink:href="#mbccabd431f" x="54" y="98.748702" style="stroke: #000000; stroke-width: 0.8"/>
      </g>
     </g>
     <g id="text_13">
      <!-- 8 -->
      <g transform="translate(40.6375 102.54792)scale(0.1 -0.1)">
       <defs>
        <path id="DejaVuSans-38" d="M 2034 2216 
Q 1584 2216 1326 1975 
Q 1069 1734 1069 1313 
Q 1069 891 1326 650 
Q 1584 409 2034 409 
Q 2484 409 2743 651 
Q 3003 894 3003 1313 
Q 3003 1734 2745 1975 
Q 2488 2216 2034 2216 
z
M 1403 2484 
Q 997 2584 770 2862 
Q 544 3141 544 3541 
Q 544 4100 942 4425 
Q 1341 4750 2034 4750 
Q 2731 4750 3128 4425 
Q 3525 4100 3525 3541 
Q 3525 3141 3298 2862 
Q 3072 2584 2669 2484 
Q 3125 2378 3379 2068 
Q 3634 1759 3634 1313 
Q 3634 634 3220 271 
Q 2806 -91 2034 -91 
Q 1263 -91 848 271 
Q 434 634 434 1313 
Q 434 1759 690 2068 
Q 947 2378 1403 2484 
z
M 1172 3481 
Q 1172 3119 1398 2916 
Q 1625 2713 2034 2713 
Q 2441 2713 2670 2916 
Q 2900 3119 2900 3481 
Q 2900 3844 2670 4047 
Q 2441 4250 2034 4250 
Q 1625 4250 1398 4047 
Q 1172 3844 1172 3481 
z
" transform="scale(0.015625)"/>
       </defs>
       <use xlink:href="#DejaVuSans-38"/>
      </g>
     </g>
    </g>
    <g id="ytick_6">
     <g id="line2d_13">
      <g>
       <use xlink:href="#mbccabd431f" x="54" y="62.14675" style="stroke: #000000; stroke-width: 0.8"/>
      </g>
     </g>
     <g id="text_14">
      <!-- 10 -->
      <g transform="translate(34.275 65.945969)scale(0.1 -0.1)">
       <use xlink:href="#DejaVuSans-31"/>
       <use xlink:href="#DejaVuSans-30" x="63.623047"/>
      </g>
     </g>
    </g>
    <g id="text_15">
     <!-- shape and scale -->
     <g transform="translate(28.195312 183.837031)rotate(-90)scale(0.1 -0.1)">
      <defs>
       <path id="DejaVuSans-68" d="M 3513 2113 
L 3513 0 
L 2938 0 
L 2938 2094 
Q 2938 2591 2744 2837 
Q 2550 3084 2163 3084 
Q 1697 3084 1428 2787 
Q 1159 2491 1159 1978 
L 1159 0 
L 581 0 
L 581 4863 
L 1159 4863 
L 1159 2956 
Q 1366 3272 1645 3428 
Q 1925 3584 2291 3584 
Q 2894 3584 3203 3211 
Q 3513 2838 3513 2113 
z
" transform="scale(0.015625)"/>
       <path id="DejaVuSans-61" d="M 2194 1759 
Q 1497 1759 1228 1600 
Q 959 1441 959 1056 
Q 959 750 1161 570 
Q 1363 391 1709 391 
Q 2188 391 2477 730 
Q 2766 1069 2766 1631 
L 2766 1759 
L 2194 1759 
z
M 3341 1997 
L 3341 0 
L 2766 0 
L 2766 531 
Q 2569 213 2275 61 
Q 1981 -91 1556 -91 
Q 1019 -91 701 211 
Q 384 513 384 1019 
Q 384 1609 779 1909 
Q 1175 2209 1959 2209 
L 2766 2209 
L 2766 2266 
Q 2766 2663 2505 2880 
Q 2244 3097 1772 3097 
Q 1472 3097 1187 3025 
Q 903 2953 641 2809 
L 641 3341 
Q 956 3463 1253 3523 
Q 1550 3584 1831 3584 
Q 2591 3584 2966 3190 
Q 3341 2797 3341 1997 
z
" transform="scale(0.015625)"/>
       <path id="DejaVuSans-70" d="M 1159 525 
L 1159 -1331 
L 581 -1331 
L 581 3500 
L 1159 3500 
L 1159 2969 
Q 1341 3281 1617 3432 
Q 1894 3584 2278 3584 
Q 2916 3584 3314 3078 
Q 3713 2572 3713 1747 
Q 3713 922 3314 415 
Q 2916 -91 2278 -91 
Q 1894 -91 1617 61 
Q 1341 213 1159 525 
z
M 3116 1747 
Q 3116 2381 2855 2742 
Q 2594 3103 2138 3103 
Q 1681 3103 1420 2742 
Q 1159 2381 1159 1747 
Q 1159 1113 1420 752 
Q 1681 391 2138 391 
Q 2594 391 2855 752 
Q 3116 1113 3116 1747 
z
" transform="scale(0.015625)"/>
       <path id="DejaVuSans-65" d="M 3597 1894 
L 3597 1613 
L 953 1613 
Q 991 1019 1311 708 
Q 1631 397 2203 397 
Q 2534 397 2845 478 
Q 3156 559 3463 722 
L 3463 178 
Q 3153 47 2828 -22 
Q 2503 -91 2169 -91 
Q 1331 -91 842 396 
Q 353 884 353 1716 
Q 353 2575 817 3079 
Q 1281 3584 2069 3584 
Q 2775 3584 3186 3129 
Q 3597 2675 3597 1894 
z
M 3022 2063 
Q 3016 2534 2758 2815 
Q 2500 3097 2075 3097 
Q 1594 3097 1305 2825 
Q 1016 2553 972 2059 
L 3022 2063 
z
" transform="scale(0.015625)"/>
       <path id="DejaVuSans-6e" d="M 3513 2113 
L 3513 0 
L 2938 0 
L 2938 2094 
Q 2938 2591 2744 2837 
Q 2550 3084 2163 3084 
Q 1697 3084 1428 2787 
Q 1159 2491 1159 1978 
L 1159 0 
L 581 0 
L 581 3500 
L 1159 3500 
L 1159 2956 
Q 1366 3272 1645 3428 
Q 1925 3584 2291 3584 
Q 2894 3584 3203 3211 
Q 3513 2838 3513 2113 
z
" transform="scale(0.015625)"/>
       <path id="DejaVuSans-64" d="M 2906 2969 
L 2906 4863 
L 3481 4863 
L 3481 0 
L 2906 0 
L 2906 525 
Q 2725 213 2448 61 
Q 2172 -91 1784 -91 
Q 1150 -91 751 415 
Q 353 922 353 1747 
Q 353 2572 751 3078 
Q 1150 3584 1784 3584 
Q 2172 3584 2448 3432 
Q 2725 3281 2906 2969 
z
M 947 1747 
Q 947 1113 1208 752 
Q 1469 391 1925 391 
Q 2381 391 2643 752 
Q 2906 1113 2906 1747 
Q 2906 2381 2643 2742 
Q 2381 3103 1925 3103 
Q 1469 3103 1208 2742 
Q 947 2381 947 1747 
z
" transform="scale(0.015625)"/>
       <path id="DejaVuSans-63" d="M 3122 3366 
L 3122 2828 
Q 2878 2963 2633 3030 
Q 2388 3097 2138 3097 
Q 1578 3097 1268 2742 
Q 959 2388 959 1747 
Q 959 1106 1268 751 
Q 1578 397 2138 397 
Q 2388 397 2633 464 
Q 2878 531 3122 666 
L 3122 134 
Q 2881 22 2623 -34 
Q 2366 -91 2075 -91 
Q 1284 -91 818 406 
Q 353 903 353 1747 
Q 353 2603 823 3093 
Q 1294 3584 2113 3584 
Q 2378 3584 2631 3529 
Q 2884 3475 3122 3366 
z
" transform="scale(0.015625)"/>
       <path id="DejaVuSans-6c" d="M 603 4863 
L 1178 4863 
L 1178 0 
L 603 0 
L 603 4863 
z
" transform="scale(0.015625)"/>
      </defs>
      <use xlink:href="#DejaVuSans-73"/>
      <use xlink:href="#DejaVuSans-68" x="52.099609"/>
      <use xlink:href="#DejaVuSans-61" x="115.478516"/>
      <use xlink:href="#DejaVuSans-70" x="176.757812"/>
      <use xlink:href="#DejaVuSans-65" x="240.234375"/>
      <use xlink:href="#DejaVuSans-20" x="301.757812"/>
      <use xlink:href="#DejaVuSans-61" x="333.544922"/>
      <use xlink:href="#DejaVuSans-6e" x="394.824219"/>
      <use xlink:href="#DejaVuSans-64" x="458.203125"/>
      <use xlink:href="#DejaVuSans-20" x="521.679688"/>
      <use xlink:href="#DejaVuSans-73" x="553.466797"/>
      <use xlink:href="#DejaVuSans-63" x="605.566406"/>
      <use xlink:href="#DejaVuSans-61" x="660.546875"/>
      <use xlink:href="#DejaVuSans-6c" x="721.826172"/>
      <use xlink:href="#DejaVuSans-65" x="749.609375"/>
     </g>
    </g>
   </g>
   <g id="line2d_14">
    <path d="M 69.218182 194.374985 
L 72.292562 194.325404 
L 75.366942 194.257943 
L 78.441322 194.171567 
L 81.515702 194.065383 
L 84.590083 193.938604 
L 87.664463 193.790521 
L 90.738843 193.620487 
L 93.813223 193.427909 
L 96.887603 193.212233 
L 99.961983 192.972942 
L 103.036364 192.709553 
L 106.110744 192.421604 
L 109.185124 192.108663 
L 112.259504 191.770314 
L 115.333884 191.406163 
L 118.408264 191.01583 
L 121.482645 190.598953 
L 124.557025 190.155182 
L 127.631405 189.684181 
L 130.705785 189.185626 
L 133.780165 188.659201 
L 136.854545 188.104602 
L 139.928926 187.521536 
L 143.003306 186.909715 
L 146.077686 186.268861 
L 149.152066 185.598704 
L 152.226446 184.89898 
L 155.300826 184.169432 
L 158.375207 183.40981 
L 161.449587 182.619868 
L 164.523967 181.799368 
L 167.598347 180.948076 
L 170.672727 180.065763 
L 173.747107 179.152205 
L 176.821488 178.207182 
L 179.895868 177.23048 
L 182.970248 176.221888 
L 186.044628 175.181199 
L 189.119008 174.10821 
L 192.193388 173.002722 
L 195.267769 171.864537 
L 198.342149 170.693465 
L 201.416529 169.489315 
L 204.490909 168.251902 
L 207.565289 166.981041 
L 210.639669 165.676553 
L 213.71405 164.33826 
L 216.78843 162.965988 
L 219.86281 161.559562 
L 222.93719 160.118814 
L 226.01157 158.643577 
L 229.08595 157.133685 
L 232.160331 155.588974 
L 235.234711 154.009286 
L 238.309091 152.39446 
L 241.383471 150.74434 
L 244.457851 149.058773 
L 247.532231 147.337604 
L 250.606612 145.580684 
L 253.680992 143.787863 
L 256.755372 141.958995 
L 259.829752 140.093934 
L 262.904132 138.192536 
L 265.978512 136.254659 
L 269.052893 134.280163 
L 272.127273 132.268909 
L 275.201653 130.220759 
L 278.276033 128.135577 
L 281.350413 126.013229 
L 284.424793 123.853581 
L 287.499174 121.656502 
L 290.573554 119.421862 
L 293.647934 117.149531 
L 296.722314 114.839381 
L 299.796694 112.491286 
L 302.871074 110.10512 
L 305.945455 107.68076 
L 309.019835 105.218081 
L 312.094215 102.716963 
L 315.168595 100.177284 
L 318.242975 97.598925 
L 321.317355 94.981767 
L 324.391736 92.325693 
L 327.466116 89.630585 
L 330.540496 86.896329 
L 333.614876 84.122809 
L 336.689256 81.309913 
L 339.763636 78.457526 
L 342.838017 75.565539 
L 345.912397 72.633839 
L 348.986777 69.662318 
L 352.061157 66.650865 
L 355.135537 63.599373 
L 358.209917 60.507734 
L 361.284298 57.375841 
L 364.358678 54.20359 
L 367.433058 50.990875 
L 370.507438 47.737591 
L 373.581818 44.443636 
" clip-path="url(#p6cefda2ed4)" style="fill: none; stroke: #1f77b4; stroke-width: 1.5; stroke-linecap: square"/>
   </g>
   <g id="line2d_15">
    <path d="M 69.218182 242.116364 
L 72.292562 241.668212 
L 75.366942 241.174472 
L 78.441322 240.640873 
L 81.515702 240.071558 
L 84.590083 239.46969 
L 87.664463 238.837783 
L 90.738843 238.177894 
L 93.813223 237.491744 
L 96.887603 236.780799 
L 99.961983 236.046325 
L 103.036364 235.289433 
L 106.110744 234.511101 
L 109.185124 233.712205 
L 112.259504 232.893531 
L 115.333884 232.055788 
L 118.408264 231.199624 
L 121.482645 230.325631 
L 124.557025 229.434353 
L 127.631405 228.526292 
L 130.705785 227.601913 
L 133.780165 226.661649 
L 136.854545 225.705903 
L 139.928926 224.735053 
L 143.003306 223.749453 
L 146.077686 222.749435 
L 149.152066 221.735314 
L 152.226446 220.707384 
L 155.300826 219.665927 
L 158.375207 218.611209 
L 161.449587 217.543481 
L 164.523967 216.462983 
L 167.598347 215.369945 
L 170.672727 214.264584 
L 173.747107 213.147108 
L 176.821488 212.017717 
L 179.895868 210.876601 
L 182.970248 209.723943 
L 186.044628 208.55992 
L 189.119008 207.384698 
L 192.193388 206.198442 
L 195.267769 205.001306 
L 198.342149 203.793441 
L 201.416529 202.574992 
L 204.490909 201.346099 
L 207.565289 200.106898 
L 210.639669 198.857517 
L 213.71405 197.598085 
L 216.78843 196.328723 
L 219.86281 195.049549 
L 222.93719 193.760679 
L 226.01157 192.462223 
L 229.08595 191.154289 
L 232.160331 189.836983 
L 235.234711 188.510405 
L 238.309091 187.174655 
L 241.383471 185.829828 
L 244.457851 184.476019 
L 247.532231 183.113318 
L 250.606612 181.741814 
L 253.680992 180.361593 
L 256.755372 178.972739 
L 259.829752 177.575334 
L 262.904132 176.169458 
L 265.978512 174.75519 
L 269.052893 173.332604 
L 272.127273 171.901776 
L 275.201653 170.462778 
L 278.276033 169.015681 
L 281.350413 167.560554 
L 284.424793 166.097465 
L 287.499174 164.626481 
L 290.573554 163.147665 
L 293.647934 161.661082 
L 296.722314 160.166794 
L 299.796694 158.664861 
L 302.871074 157.155343 
L 305.945455 155.638298 
L 309.019835 154.113784 
L 312.094215 152.581856 
L 315.168595 151.042569 
L 318.242975 149.495977 
L 321.317355 147.942134 
L 324.391736 146.38109 
L 327.466116 144.812897 
L 330.540496 143.237605 
L 333.614876 141.655262 
L 336.689256 140.065916 
L 339.763636 138.469616 
L 342.838017 136.866407 
L 345.912397 135.256335 
L 348.986777 133.639445 
L 352.061157 132.015781 
L 355.135537 130.385385 
L 358.209917 128.748302 
L 361.284298 127.104572 
L 364.358678 125.454237 
L 367.433058 123.797337 
L 370.507438 122.133912 
L 373.581818 120.464001 
" clip-path="url(#p6cefda2ed4)" style="fill: none; stroke: #ff7f0e; stroke-width: 1.5; stroke-linecap: square"/>
   </g>
   <g id="patch_3">
    <path d="M 54 252 
L 54 34.56 
" style="fill: none; stroke: #000000; stroke-width: 0.8; stroke-linejoin: miter; stroke-linecap: square"/>
   </g>
   <g id="patch_4">
    <path d="M 388.8 252 
L 388.8 34.56 
" style="fill: none; stroke: #000000; stroke-width: 0.8; stroke-linejoin: miter; stroke-linecap: square"/>
   </g>
   <g id="patch_5">
    <path d="M 54 252 
L 388.8 252 
" style="fill: none; stroke: #000000; stroke-width: 0.8; stroke-linejoin: miter; stroke-linecap: square"/>
   </g>
   <g id="patch_6">
    <path d="M 54 34.56 
L 388.8 34.56 
" style="fill: none; stroke: #000000; stroke-width: 0.8; stroke-linejoin: miter; stroke-linecap: square"/>
   </g>
   <g id="text_16">
    <!-- shape and scale of Weibull Distribution -->
    <g transform="translate(104.340938 28.56)scale(0.12 -0.12)">
     <defs>
      <path id="DejaVuSans-6f" d="M 1959 3097 
Q 1497 3097 1228 2736 
Q 959 2375 959 1747 
Q 959 1119 1226 758 
Q 1494 397 1959 397 
Q 2419 397 2687 759 
Q 2956 1122 2956 1747 
Q 2956 2369 2687 2733 
Q 2419 3097 1959 3097 
z
M 1959 3584 
Q 2709 3584 3137 3096 
Q 3566 2609 3566 1747 
Q 3566 888 3137 398 
Q 2709 -91 1959 -91 
Q 1206 -91 779 398 
Q 353 888 353 1747 
Q 353 2609 779 3096 
Q 1206 3584 1959 3584 
z
" transform="scale(0.015625)"/>
      <path id="DejaVuSans-66" d="M 2375 4863 
L 2375 4384 
L 1825 4384 
Q 1516 4384 1395 4259 
Q 1275 4134 1275 3809 
L 1275 3500 
L 2222 3500 
L 2222 3053 
L 1275 3053 
L 1275 0 
L 697 0 
L 697 3053 
L 147 3053 
L 147 3500 
L 697 3500 
L 697 3744 
Q 697 4328 969 4595 
Q 1241 4863 1831 4863 
L 2375 4863 
z
" transform="scale(0.015625)"/>
      <path id="DejaVuSans-57" d="M 213 4666 
L 850 4666 
L 1831 722 
L 2809 4666 
L 3519 4666 
L 4500 722 
L 5478 4666 
L 6119 4666 
L 4947 0 
L 4153 0 
L 3169 4050 
L 2175 0 
L 1381 0 
L 213 4666 
z
" transform="scale(0.015625)"/>
      <path id="DejaVuSans-69" d="M 603 3500 
L 1178 3500 
L 1178 0 
L 603 0 
L 603 3500 
z
M 603 4863 
L 1178 4863 
L 1178 4134 
L 603 4134 
L 603 4863 
z
" transform="scale(0.015625)"/>
      <path id="DejaVuSans-62" d="M 3116 1747 
Q 3116 2381 2855 2742 
Q 2594 3103 2138 3103 
Q 1681 3103 1420 2742 
Q 1159 2381 1159 1747 
Q 1159 1113 1420 752 
Q 1681 391 2138 391 
Q 2594 391 2855 752 
Q 3116 1113 3116 1747 
z
M 1159 2969 
Q 1341 3281 1617 3432 
Q 1894 3584 2278 3584 
Q 2916 3584 3314 3078 
Q 3713 2572 3713 1747 
Q 3713 922 3314 415 
Q 2916 -91 2278 -91 
Q 1894 -91 1617 61 
Q 1341 213 1159 525 
L 1159 0 
L 581 0 
L 581 4863 
L 1159 4863 
L 1159 2969 
z
" transform="scale(0.015625)"/>
      <path id="DejaVuSans-75" d="M 544 1381 
L 544 3500 
L 1119 3500 
L 1119 1403 
Q 1119 906 1312 657 
Q 1506 409 1894 409 
Q 2359 409 2629 706 
Q 2900 1003 2900 1516 
L 2900 3500 
L 3475 3500 
L 3475 0 
L 2900 0 
L 2900 538 
Q 2691 219 2414 64 
Q 2138 -91 1772 -91 
Q 1169 -91 856 284 
Q 544 659 544 1381 
z
M 1991 3584 
L 1991 3584 
z
" transform="scale(0.015625)"/>
      <path id="DejaVuSans-44" d="M 1259 4147 
L 1259 519 
L 2022 519 
Q 2988 519 3436 956 
Q 3884 1394 3884 2338 
Q 3884 3275 3436 3711 
Q 2988 4147 2022 4147 
L 1259 4147 
z
M 628 4666 
L 1925 4666 
Q 3281 4666 3915 4102 
Q 4550 3538 4550 2338 
Q 4550 1131 3912 565 
Q 3275 0 1925 0 
L 628 0 
L 628 4666 
z
" transform="scale(0.015625)"/>
      <path id="DejaVuSans-74" d="M 1172 4494 
L 1172 3500 
L 2356 3500 
L 2356 3053 
L 1172 3053 
L 1172 1153 
Q 1172 725 1289 603 
Q 1406 481 1766 481 
L 2356 481 
L 2356 0 
L 1766 0 
Q 1100 0 847 248 
Q 594 497 594 1153 
L 594 3053 
L 172 3053 
L 172 3500 
L 594 3500 
L 594 4494 
L 1172 4494 
z
" transform="scale(0.015625)"/>
      <path id="DejaVuSans-72" d="M 2631 2963 
Q 2534 3019 2420 3045 
Q 2306 3072 2169 3072 
Q 1681 3072 1420 2755 
Q 1159 2438 1159 1844 
L 1159 0 
L 581 0 
L 581 3500 
L 1159 3500 
L 1159 2956 
Q 1341 3275 1631 3429 
Q 1922 3584 2338 3584 
Q 2397 3584 2469 3576 
Q 2541 3569 2628 3553 
L 2631 2963 
z
" transform="scale(0.015625)"/>
     </defs>
     <use xlink:href="#DejaVuSans-73"/>
     <use xlink:href="#DejaVuSans-68" x="52.099609"/>
     <use xlink:href="#DejaVuSans-61" x="115.478516"/>
     <use xlink:href="#DejaVuSans-70" x="176.757812"/>
     <use xlink:href="#DejaVuSans-65" x="240.234375"/>
     <use xlink:href="#DejaVuSans-20" x="301.757812"/>
     <use xlink:href="#DejaVuSans-61" x="333.544922"/>
     <use xlink:href="#DejaVuSans-6e" x="394.824219"/>
     <use xlink:href="#DejaVuSans-64" x="458.203125"/>
     <use xlink:href="#DejaVuSans-20" x="521.679688"/>
     <use xlink:href="#DejaVuSans-73" x="553.466797"/>
     <use xlink:href="#DejaVuSans-63" x="605.566406"/>
     <use xlink:href="#DejaVuSans-61" x="660.546875"/>
     <use xlink:href="#DejaVuSans-6c" x="721.826172"/>
     <use xlink:href="#DejaVuSans-65" x="749.609375"/>
     <use xlink:href="#DejaVuSans-20" x="811.132812"/>
     <use xlink:href="#DejaVuSans-6f" x="842.919922"/>
     <use xlink:href="#DejaVuSans-66" x="904.101562"/>
     <use xlink:href="#DejaVuSans-20" x="939.306641"/>
     <use xlink:href="#DejaVuSans-57" x="971.09375"/>
     <use xlink:href="#DejaVuSans-65" x="1064.095703"/>
     <use xlink:href="#DejaVuSans-69" x="1125.619141"/>
     <use xlink:href="#DejaVuSans-62" x="1153.402344"/>
     <use xlink:href="#DejaVuSans-75" x="1216.878906"/>
     <use xlink:href="#DejaVuSans-6c" x="1280.257812"/>
     <use xlink:href="#DejaVuSans-6c" x="1308.041016"/>
     <use xlink:href="#DejaVuSans-20" x="1335.824219"/>
     <use xlink:href="#DejaVuSans-44" x="1367.611328"/>
     <use xlink:href="#DejaVuSans-69" x="1444.613281"/>
     <use xlink:href="#DejaVuSans-73" x="1472.396484"/>
     <use xlink:href="#DejaVuSans-74" x="1524.496094"/>
     <use xlink:href="#DejaVuSans-72" x="1563.705078"/>
     <use xlink:href="#DejaVuSans-69" x="1604.818359"/>
     <use xlink:href="#DejaVuSans-62" x="1632.601562"/>
     <use xlink:href="#DejaVuSans-75" x="1696.078125"/>
     <use xlink:href="#DejaVuSans-74" x="1759.457031"/>
     <use xlink:href="#DejaVuSans-69" x="1798.666016"/>
     <use xlink:href="#DejaVuSans-6f" x="1826.449219"/>
     <use xlink:href="#DejaVuSans-6e" x="1887.630859"/>
    </g>
   </g>
   <g id="legend_1">
    <g id="patch_7">
     <path d="M 61 101.82875 
L 138.395312 101.82875 
Q 140.395312 101.82875 140.395312 99.82875 
L 140.395312 41.56 
Q 140.395312 39.56 138.395312 39.56 
L 61 39.56 
Q 59 39.56 59 41.56 
L 59 99.82875 
Q 59 101.82875 61 101.82875 
z
" style="fill: #ffffff; opacity: 0.8; stroke: #cccccc; stroke-linejoin: miter"/>
    </g>
    <g id="PathCollection_3">
     <g>
      <use xlink:href="#m636ddb7824" x="73" y="48.533438" style="fill: #1f77b4; stroke: #1f77b4"/>
     </g>
    </g>
    <g id="text_17">
     <!-- shape -->
     <g transform="translate(91 51.158438)scale(0.1 -0.1)">
      <use xlink:href="#DejaVuSans-73"/>
      <use xlink:href="#DejaVuSans-68" x="52.099609"/>
      <use xlink:href="#DejaVuSans-61" x="115.478516"/>
      <use xlink:href="#DejaVuSans-70" x="176.757812"/>
      <use xlink:href="#DejaVuSans-65" x="240.234375"/>
     </g>
    </g>
    <g id="PathCollection_4">
     <g>
      <use xlink:href="#m54886dd10b" x="73" y="63.211563" style="fill: #ff7f0e; stroke: #ff7f0e"/>
     </g>
    </g>
    <g id="text_18">
     <!-- scale -->
     <g transform="translate(91 65.836563)scale(0.1 -0.1)">
      <use xlink:href="#DejaVuSans-73"/>
      <use xlink:href="#DejaVuSans-63" x="52.099609"/>
      <use xlink:href="#DejaVuSans-61" x="107.080078"/>
      <use xlink:href="#DejaVuSans-6c" x="168.359375"/>
      <use xlink:href="#DejaVuSans-65" x="196.142578"/>
     </g>
    </g>
    <g id="line2d_16">
     <path d="M 63 77.014688 
L 73 77.014688 
L 83 77.014688 
" style="fill: none; stroke: #1f77b4; stroke-width: 1.5; stroke-linecap: square"/>
    </g>
    <g id="text_19">
     <!-- shape_fit -->
     <g transform="translate(91 80.514688)scale(0.1 -0.1)">
      <defs>
       <path id="DejaVuSans-5f" d="M 3263 -1063 
L 3263 -1509 
L -63 -1509 
L -63 -1063 
L 3263 -1063 
z
" transform="scale(0.015625)"/>
      </defs>
      <use xlink:href="#DejaVuSans-73"/>
      <use xlink:href="#DejaVuSans-68" x="52.099609"/>
      <use xlink:href="#DejaVuSans-61" x="115.478516"/>
      <use xlink:href="#DejaVuSans-70" x="176.757812"/>
      <use xlink:href="#DejaVuSans-65" x="240.234375"/>
      <use xlink:href="#DejaVuSans-5f" x="301.757812"/>
      <use xlink:href="#DejaVuSans-66" x="351.757812"/>
      <use xlink:href="#DejaVuSans-69" x="386.962891"/>
      <use xlink:href="#DejaVuSans-74" x="414.746094"/>
     </g>
    </g>
    <g id="line2d_17">
     <path d="M 63 91.970938 
L 73 91.970938 
L 83 91.970938 
" style="fill: none; stroke: #ff7f0e; stroke-width: 1.5; stroke-linecap: square"/>
    </g>
    <g id="text_20">
     <!-- scale_fit -->
     <g transform="translate(91 95.470938)scale(0.1 -0.1)">
      <use xlink:href="#DejaVuSans-73"/>
      <use xlink:href="#DejaVuSans-63" x="52.099609"/>
      <use xlink:href="#DejaVuSans-61" x="107.080078"/>
      <use xlink:href="#DejaVuSans-6c" x="168.359375"/>
      <use xlink:href="#DejaVuSans-65" x="196.142578"/>
      <use xlink:href="#DejaVuSans-5f" x="257.666016"/>
      <use xlink:href="#DejaVuSans-66" x="307.666016"/>
      <use xlink:href="#DejaVuSans-69" x="342.871094"/>
      <use xlink:href="#DejaVuSans-74" x="370.654297"/>
     </g>
    </g>
   </g>
  </g>
 </g>
 <defs>
  <clipPath id="p6cefda2ed4">
   <rect x="54" y="34.56" width="334.8" height="217.44"/>
  </clipPath>
 </defs>
</svg>
